<svg xmlns="http://www.w3.org/2000/svg" xmlns:xlink="http://www.w3.org/1999/xlink" width="500" zoomAndPan="magnify" viewBox="0 0 375 374.999991" height="500" preserveAspectRatio="xMidYMid meet" version="1.0"><defs><g/><clipPath id="91778b441f"><path d="M 138 86 L 230 86 L 230 154 L 138 154 Z M 138 86 " clip-rule="nonzero"/></clipPath><clipPath id="cf40e8a041"><path d="M 135.578125 89.625 L 227.65625 83.976562 L 231.648438 149.101562 L 139.570312 154.75 Z M 135.578125 89.625 " clip-rule="nonzero"/></clipPath><clipPath id="4936e19b0b"><path d="M 227.746094 83.96875 L 135.671875 89.617188 L 139.664062 154.746094 L 231.742188 149.097656 Z M 227.746094 83.96875 " clip-rule="nonzero"/></clipPath><clipPath id="57a1f711b1"><path d="M 113 142 L 262.5 142 L 262.5 163 L 113 163 Z M 113 142 " clip-rule="nonzero"/></clipPath></defs><rect x="-37.5" width="450" fill="#ffffff" y="-37.499999" height="449.999989" fill-opacity="1"/><rect x="-37.5" width="450" fill="#ffffff" y="-37.499999" height="449.999989" fill-opacity="1"/><g clip-path="url(#91778b441f)"><g clip-path="url(#cf40e8a041)"><g clip-path="url(#4936e19b0b)"><path fill="#000000" d="M 207.445312 92.847656 C 199.917969 88.5 191.066406 86.226562 181.765625 86.796875 C 170.378906 87.496094 160.175781 92.324219 152.589844 99.738281 C 144.90625 107.234375 139.867188 117.410156 138.933594 128.617188 C 138.628906 132.210938 144.09375 132.652344 144.390625 129.074219 C 145.214844 119.207031 149.640625 110.246094 156.417969 103.632812 C 163.078125 97.125 172.046875 92.878906 182.101562 92.261719 C 189.503906 91.808594 196.578125 93.375 202.742188 96.5 Z M 200.691406 151.347656 C 204.285156 151.128906 203.949219 145.664062 200.355469 145.882812 L 170.535156 147.710938 C 166.945312 147.933594 167.277344 153.398438 170.871094 153.179688 Z M 188.675781 125.277344 C 191.339844 127.628906 191.59375 131.6875 189.242188 134.34375 C 186.878906 137.011719 182.847656 137.285156 180.160156 134.914062 C 177.523438 132.746094 177.382812 128.339844 179.601562 125.832031 C 181.964844 123.164062 186.015625 122.921875 188.675781 125.277344 Z M 178.746094 119.632812 C 177.550781 120.28125 176.441406 121.136719 175.492188 122.214844 C 171.136719 127.128906 171.625 134.648438 176.519531 139.003906 C 181.390625 143.304688 189.269531 142.585938 193.34375 137.980469 C 194.300781 136.886719 195.035156 135.664062 195.527344 134.375 L 218.929688 95.128906 C 220.464844 92.523438 217.25 89.71875 214.902344 91.566406 Z M 192.304688 121.183594 C 191.171875 120.171875 189.898438 119.433594 188.570312 118.933594 L 206.8125 104.761719 L 194.984375 124.609375 C 194.335938 123.339844 193.441406 122.175781 192.304688 121.183594 Z M 224.035156 124.1875 C 224.757812 127.703125 230.128906 126.597656 229.394531 123.070312 C 227.730469 115.136719 224.027344 107.988281 218.875 102.175781 L 215.921875 107.140625 C 219.859375 111.996094 222.699219 117.800781 224.035156 124.1875 " fill-opacity="1" fill-rule="nonzero"/></g></g></g><g clip-path="url(#57a1f711b1)"><path fill="#545454" d="M 261.46875 146.417969 C 259.484375 141.609375 245.785156 142.996094 241.699219 142.863281 C 229.308594 142.46875 216.777344 143.011719 204.390625 143.386719 C 178.535156 144.167969 152.800781 146.117188 126.980469 144.832031 C 123.933594 144.078125 117.921875 141.9375 115.980469 143.203125 C 113.816406 144.613281 112.515625 156.796875 113.753906 159.355469 C 115.449219 162.835938 123.558594 161.980469 126.984375 162.191406 C 138.617188 162.898438 150.914062 161.730469 162.527344 160.996094 C 188.902344 159.335938 215.4375 159.875 241.769531 160.78125 C 245.433594 160.90625 249.238281 160.890625 252.847656 160.519531 C 254.8125 160.316406 259 160.910156 260.609375 159.660156 C 262.421875 158.253906 262.472656 148.851562 261.46875 146.417969 Z M 261.46875 146.417969 " fill-opacity="1" fill-rule="nonzero"/></g><path fill="#000000" d="M 130.683594 129.386719 C 129.597656 128.265625 127.894531 129.453125 126.585938 129.609375 C 125.171875 129.78125 123.324219 129.542969 122.269531 130.914062 C 120.566406 133.121094 121.425781 137.117188 121.554688 140.007812 C 121.789062 145.300781 122.386719 151.371094 121.8125 156.5 C 121.023438 163.503906 120.148438 179.585938 128.324219 178.660156 C 129.960938 178.476562 132.269531 178.511719 132.507812 175.910156 C 132.859375 172.082031 132.355469 167.816406 132.453125 163.886719 C 132.570312 159.09375 133.28125 154.25 132.910156 149.425781 C 132.695312 146.628906 132.777344 143.914062 132.546875 141.125 C 132.363281 138.90625 132.316406 136.566406 132.691406 134.417969 C 132.691406 134.417969 131.519531 130.246094 130.683594 129.386719 Z M 130.683594 129.386719 " fill-opacity="1" fill-rule="nonzero"/><path fill="#000000" d="M 137.027344 121.332031 C 134.390625 121.886719 130.996094 121.871094 129.238281 124.925781 C 127.003906 128.792969 128.886719 134.453125 129.199219 138.933594 C 129.714844 146.28125 128.382812 153.496094 128.941406 160.832031 C 129.386719 166.660156 128.375 172.761719 129.78125 178.507812 C 131.746094 186.523438 137.011719 185.070312 142.09375 184.773438 C 146.011719 184.542969 150.042969 183.144531 151.527344 177.714844 C 153.796875 169.398438 151.238281 147.757812 151.089844 138.324219 C 150.847656 122.734375 147.667969 119.089844 137.027344 121.332031 Z M 137.027344 121.332031 " fill-opacity="1" fill-rule="nonzero"/><path fill="#000000" d="M 245.402344 129.386719 C 246.488281 128.265625 248.191406 129.453125 249.5 129.609375 C 250.914062 129.78125 252.761719 129.542969 253.816406 130.914062 C 255.519531 133.121094 254.660156 137.117188 254.53125 140.007812 C 254.296875 145.300781 253.699219 151.371094 254.273438 156.5 C 255.0625 163.503906 255.9375 179.585938 247.761719 178.660156 C 246.125 178.476562 243.816406 178.511719 243.574219 175.910156 C 243.226562 172.082031 243.730469 167.816406 243.632812 163.886719 C 243.515625 159.09375 242.804688 154.25 243.175781 149.425781 C 243.390625 146.628906 243.308594 143.914062 243.539062 141.125 C 243.722656 138.90625 243.765625 136.566406 243.394531 134.417969 C 243.394531 134.417969 244.566406 130.246094 245.402344 129.386719 Z M 245.402344 129.386719 " fill-opacity="1" fill-rule="nonzero"/><path fill="#000000" d="M 236.324219 120.820312 C 239.410156 121.5 243.355469 121.644531 245.519531 124.789062 C 248.257812 128.769531 246.285156 134.347656 246.089844 138.824219 C 245.769531 146.15625 247.589844 153.449219 247.214844 160.773438 C 246.917969 166.589844 248.328125 172.75 246.910156 178.441406 C 244.929688 186.375 238.75 184.671875 232.832031 184.140625 C 228.265625 183.726562 223.523438 182.136719 221.59375 176.625 C 218.640625 168.1875 220.796875 146.625 220.613281 137.1875 C 220.308594 121.578125 223.867188 118.074219 236.324219 120.820312 Z M 236.324219 120.820312 " fill-opacity="1" fill-rule="nonzero"/><path fill="#d4ff02" d="M 247.234375 178.679688 C 247.179688 178.679688 247.121094 178.675781 247.066406 178.664062 C 246.589844 178.574219 246.277344 178.109375 246.371094 177.632812 C 247.871094 169.890625 247.277344 159.839844 246.699219 150.117188 C 246.273438 142.90625 245.832031 135.449219 246.207031 128.742188 C 246.234375 128.257812 246.652344 127.894531 247.132812 127.914062 C 247.621094 127.941406 247.992188 128.355469 247.964844 128.84375 C 247.59375 135.445312 248.03125 142.851562 248.457031 150.011719 C 249.039062 159.84375 249.640625 170.011719 248.097656 177.96875 C 248.015625 178.390625 247.648438 178.679688 247.234375 178.679688 Z M 247.234375 178.679688 " fill-opacity="1" fill-rule="nonzero"/><path fill="#d4ff02" d="M 131.402344 178.410156 C 131.148438 178.410156 130.828125 178.296875 130.527344 177.875 C 130.417969 177.730469 130.359375 177.550781 130.359375 177.367188 C 130.324219 171.382812 130.183594 165.171875 129.925781 158.382812 C 129.773438 154.277344 129.21875 149.996094 128.6875 145.855469 C 128.015625 140.644531 127.320312 135.257812 127.398438 130.113281 C 127.40625 129.628906 127.820312 129.246094 128.289062 129.246094 C 128.777344 129.253906 129.164062 129.65625 129.15625 130.140625 C 129.082031 135.15625 129.769531 140.480469 130.429688 145.632812 C 130.96875 149.8125 131.527344 154.132812 131.683594 158.316406 C 131.921875 164.59375 132.0625 170.378906 132.109375 175.949219 C 132.246094 176.136719 132.304688 176.375 132.261719 176.617188 C 132.261719 176.6875 132.28125 176.847656 132.296875 176.945312 C 132.34375 177.339844 132.433594 178.070312 131.742188 178.34375 C 131.652344 178.378906 131.539062 178.410156 131.402344 178.410156 Z M 131.402344 178.410156 " fill-opacity="1" fill-rule="nonzero"/><path fill="#d4ff02" d="M 121.742188 162.195312 C 121.726562 162.195312 121.710938 162.195312 121.695312 162.195312 C 120.6875 162.140625 120.695312 161.386719 120.722656 158.582031 C 120.730469 157.757812 120.742188 156.824219 120.71875 156 C 120.683594 154.683594 120.585938 153.292969 120.488281 151.945312 C 120.28125 149.074219 120.070312 146.105469 120.425781 143.378906 C 120.488281 142.898438 120.929688 142.554688 121.410156 142.621094 C 121.894531 142.683594 122.234375 143.125 122.171875 143.609375 C 121.835938 146.15625 122.042969 149.035156 122.242188 151.820312 C 122.339844 153.183594 122.441406 154.597656 122.476562 155.953125 C 122.5 156.808594 122.492188 157.761719 122.484375 158.597656 C 122.476562 159.449219 122.464844 160.488281 122.507812 160.878906 C 122.589844 161.019531 122.632812 161.1875 122.621094 161.363281 C 122.59375 161.832031 122.207031 162.195312 121.742188 162.195312 Z M 121.742188 162.195312 " fill-opacity="1" fill-rule="nonzero"/><path fill="#d4ff02" d="M 254.808594 160.414062 C 254.320312 160.414062 253.925781 160.019531 253.925781 159.535156 C 253.925781 158.359375 253.839844 155.84375 253.742188 153.179688 C 253.628906 149.914062 253.496094 146.214844 253.484375 143.796875 C 253.480469 143.308594 253.871094 142.914062 254.359375 142.910156 C 254.359375 142.910156 254.359375 142.910156 254.363281 142.910156 C 254.847656 142.910156 255.238281 143.300781 255.242188 143.785156 C 255.253906 146.179688 255.386719 149.867188 255.503906 153.117188 C 255.601562 155.914062 255.6875 158.328125 255.6875 159.535156 C 255.6875 160.019531 255.292969 160.414062 254.808594 160.414062 Z M 254.808594 160.414062 " fill-opacity="1" fill-rule="nonzero"/><g fill="#000000" fill-opacity="1"><g transform="translate(43.582033, 252.742498)"><g><path d="M 26.054688 -34.101562 L 26.054688 -42.625 L 4.769531 -42.625 L 4.769531 0 L 13.292969 0 L 13.292969 -17.050781 L 24.144531 -17.050781 L 24.144531 -25.574219 L 13.292969 -25.574219 L 13.292969 -34.101562 Z M 26.054688 -34.101562 "/></g></g></g><g fill="#000000" fill-opacity="1"><g transform="translate(71.898376, 252.742498)"><g><path d="M 4.769531 -42.625 L 4.769531 0 L 26.828125 0 L 26.828125 -8.523438 L 13.292969 -8.523438 L 13.292969 -42.625 Z M 4.769531 -42.625 "/></g></g></g><g fill="#000000" fill-opacity="1"><g transform="translate(101.287752, 252.742498)"><g><path d="M 26.828125 0 L 26.828125 -8.523438 L 13.292969 -8.523438 L 13.292969 -17.050781 L 24.503906 -17.050781 L 24.503906 -25.574219 L 13.292969 -25.574219 L 13.292969 -34.101562 L 26.113281 -34.101562 L 26.113281 -42.625 L 4.769531 -42.625 L 4.769531 0 Z M 26.828125 0 "/></g></g></g><g fill="#000000" fill-opacity="1"><g transform="translate(131.332874, 252.742498)"><g><path d="M 0.359375 0 L 10.730469 0 L 18.957031 -14.605469 L 27.125 0 L 37.203125 0 L 23.789062 -22.714844 L 35.414062 -42.6875 L 25.335938 -42.6875 L 18.957031 -30.820312 L 12.519531 -42.6875 L 2.207031 -42.6875 L 13.773438 -22.714844 Z M 0.359375 0 "/></g></g></g><g fill="#000000" fill-opacity="1"><g transform="translate(168.948892, 252.742498)"><g><path d="M 26.054688 -34.101562 L 26.054688 -42.625 L 4.769531 -42.625 L 4.769531 0 L 13.292969 0 L 13.292969 -17.050781 L 24.144531 -17.050781 L 24.144531 -25.574219 L 13.292969 -25.574219 L 13.292969 -34.101562 Z M 26.054688 -34.101562 "/></g></g></g><g fill="#000000" fill-opacity="1"><g transform="translate(197.265235, 252.742498)"><g><path d="M 4.769531 -42.625 L 4.769531 0 L 26.828125 0 L 26.828125 -8.523438 L 13.292969 -8.523438 L 13.292969 -42.625 Z M 4.769531 -42.625 "/></g></g></g><g fill="#000000" fill-opacity="1"><g transform="translate(226.654611, 252.742498)"><g><path d="M 25.277344 0.597656 C 54.609375 0.597656 54.609375 -43.34375 25.277344 -43.34375 C -4.054688 -43.34375 -4.054688 0.597656 25.277344 0.597656 Z M 25.277344 -8.226562 C 8.226562 -8.226562 8.226562 -34.578125 25.277344 -34.578125 C 42.328125 -34.578125 42.328125 -8.226562 25.277344 -8.226562 Z M 25.277344 -8.226562 "/></g></g></g><g fill="#000000" fill-opacity="1"><g transform="translate(277.147096, 252.742498)"><g><path d="M 17.824219 0.894531 L 19.316406 0.894531 L 27.066406 -18.183594 L 34.875 0.714844 L 36.425781 0.714844 L 53.835938 -42.625 L 44.234375 -42.625 L 35.652344 -20.867188 L 27.304688 -42.210938 L 26.886719 -42.210938 L 18.542969 -20.867188 L 9.957031 -42.625 L 0.359375 -42.625 Z M 17.824219 0.894531 "/></g></g></g><g fill="#000000" fill-opacity="1"><g transform="translate(58.121958, 277.530363)"><g><path d="M 6.226562 -7.992188 L 6.226562 -8.839844 L 0.976562 -8.839844 L 0.976562 0 L 1.882812 0 L 1.882812 -3.988281 L 6.097656 -3.988281 L 6.097656 -4.847656 L 1.882812 -4.847656 L 1.882812 -7.992188 Z M 6.226562 -7.992188 "/></g></g></g><g fill="#000000" fill-opacity="1"><g transform="translate(75.007128, 277.530363)"><g><path d="M 1.882812 0 L 1.882812 -8.839844 L 0.976562 -8.839844 L 0.976562 0 Z M 1.882812 0 "/></g></g></g><g fill="#000000" fill-opacity="1"><g transform="translate(88.266409, 277.530363)"><g><path d="M 0.261719 -8.019531 L 2.40625 -8.019531 L 2.40625 -0.0273438 L 3.3125 -0.0273438 L 3.3125 -8.019531 L 5.457031 -8.019531 L 5.457031 -8.863281 L 0.261719 -8.863281 Z M 0.261719 -8.019531 "/></g></g></g><g fill="#000000" fill-opacity="1"><g transform="translate(104.384813, 277.530363)"><g><path d="M 1.882812 -6.511719 L 6.851562 0.546875 L 6.851562 -8.839844 L 5.941406 -8.839844 L 5.941406 -2.339844 L 0.976562 -9.398438 L 0.976562 0 L 1.882812 0 Z M 1.882812 -6.511719 "/></g></g></g><g fill="#000000" fill-opacity="1"><g transform="translate(122.608575, 277.530363)"><g><path d="M 6.226562 0 L 6.226562 -0.84375 L 1.882812 -0.84375 L 1.882812 -3.988281 L 6.097656 -3.988281 L 6.097656 -4.847656 L 1.882812 -4.847656 L 1.882812 -7.992188 L 6.226562 -7.992188 L 6.226562 -8.839844 L 0.976562 -8.839844 L 0.976562 0 Z M 6.226562 0 "/></g></g></g><g fill="#000000" fill-opacity="1"><g transform="translate(140.208535, 277.530363)"><g><path d="M 3.417969 -4.160156 C 4.5625 -3.886719 5.34375 -3.585938 5.757812 -3.25 C 6.042969 -3.015625 6.1875 -2.714844 6.1875 -2.351562 C 6.1875 -1.988281 6.109375 -1.691406 5.953125 -1.480469 C 5.5625 -0.9375 4.859375 -0.664062 3.875 -0.664062 C 2.496094 -0.664062 1.714844 -1.128906 1.546875 -2.066406 L 0.480469 -2.066406 C 0.792969 -0.570312 1.921875 0.167969 3.875 0.167969 C 4.742188 0.167969 5.472656 -0.0117188 6.058594 -0.402344 C 6.757812 -0.859375 7.121094 -1.535156 7.121094 -2.417969 C 7.121094 -3.144531 6.835938 -3.703125 6.265625 -4.09375 C 5.863281 -4.378906 5.210938 -4.640625 4.316406 -4.875 C 3.40625 -5.109375 2.820312 -5.304688 2.546875 -5.445312 C 1.949219 -5.746094 1.652344 -6.160156 1.664062 -6.707031 C 1.664062 -6.992188 1.714844 -7.238281 1.84375 -7.421875 C 2.183594 -7.929688 2.78125 -8.1875 3.640625 -8.1875 C 4.847656 -8.1875 5.535156 -7.796875 5.71875 -7.042969 L 6.707031 -7.042969 C 6.382812 -8.320312 5.355469 -8.96875 3.640625 -8.96875 C 2.859375 -8.96875 2.171875 -8.761719 1.597656 -8.34375 C 1.015625 -7.929688 0.714844 -7.316406 0.714844 -6.484375 C 0.714844 -5.355469 1.625 -4.574219 3.417969 -4.160156 Z M 3.417969 -4.160156 "/></g></g></g><g fill="#000000" fill-opacity="1"><g transform="translate(158.068412, 277.530363)"><g><path d="M 3.417969 -4.160156 C 4.5625 -3.886719 5.34375 -3.585938 5.757812 -3.25 C 6.042969 -3.015625 6.1875 -2.714844 6.1875 -2.351562 C 6.1875 -1.988281 6.109375 -1.691406 5.953125 -1.480469 C 5.5625 -0.9375 4.859375 -0.664062 3.875 -0.664062 C 2.496094 -0.664062 1.714844 -1.128906 1.546875 -2.066406 L 0.480469 -2.066406 C 0.792969 -0.570312 1.921875 0.167969 3.875 0.167969 C 4.742188 0.167969 5.472656 -0.0117188 6.058594 -0.402344 C 6.757812 -0.859375 7.121094 -1.535156 7.121094 -2.417969 C 7.121094 -3.144531 6.835938 -3.703125 6.265625 -4.09375 C 5.863281 -4.378906 5.210938 -4.640625 4.316406 -4.875 C 3.40625 -5.109375 2.820312 -5.304688 2.546875 -5.445312 C 1.949219 -5.746094 1.652344 -6.160156 1.664062 -6.707031 C 1.664062 -6.992188 1.714844 -7.238281 1.84375 -7.421875 C 2.183594 -7.929688 2.78125 -8.1875 3.640625 -8.1875 C 4.847656 -8.1875 5.535156 -7.796875 5.71875 -7.042969 L 6.707031 -7.042969 C 6.382812 -8.320312 5.355469 -8.96875 3.640625 -8.96875 C 2.859375 -8.96875 2.171875 -8.761719 1.597656 -8.34375 C 1.015625 -7.929688 0.714844 -7.316406 0.714844 -6.484375 C 0.714844 -5.355469 1.625 -4.574219 3.417969 -4.160156 Z M 3.417969 -4.160156 "/></g></g></g><g fill="#000000" fill-opacity="1"><g transform="translate(175.928289, 277.530363)"><g/></g></g><g fill="#000000" fill-opacity="1"><g transform="translate(189.83738, 277.530363)"><g><path d="M 0.261719 -8.019531 L 2.40625 -8.019531 L 2.40625 -0.0273438 L 3.3125 -0.0273438 L 3.3125 -8.019531 L 5.457031 -8.019531 L 5.457031 -8.863281 L 0.261719 -8.863281 Z M 0.261719 -8.019531 "/></g></g></g><g fill="#000000" fill-opacity="1"><g transform="translate(205.955787, 277.530363)"><g><path d="M 1.882812 -4.367188 L 1.882812 -7.96875 L 3.9375 -7.96875 C 4.472656 -7.96875 4.898438 -7.796875 5.226562 -7.460938 C 5.535156 -7.121094 5.707031 -6.707031 5.707031 -6.1875 C 5.707031 -5.667969 5.535156 -5.238281 5.199219 -4.886719 C 4.859375 -4.535156 4.445312 -4.367188 3.9375 -4.367188 Z M 6.617188 -6.171875 C 6.617188 -6.925781 6.328125 -7.578125 5.785156 -8.085938 C 5.25 -8.578125 4.589844 -8.839844 3.808594 -8.839844 L 0.976562 -8.839844 L 0.976562 0 L 1.882812 0 L 1.882812 -3.496094 L 2.9375 -3.496094 L 5.535156 0 L 6.757812 0 L 4.027344 -3.496094 C 4.71875 -3.535156 5.304688 -3.78125 5.785156 -4.238281 C 6.328125 -4.742188 6.617188 -5.394531 6.617188 -6.171875 Z M 6.617188 -6.171875 "/></g></g></g><g fill="#000000" fill-opacity="1"><g transform="translate(223.425787, 277.530363)"><g><path d="M 2.40625 -3.25 L 4.015625 -7.316406 L 5.613281 -3.25 Z M 7.890625 0 L 4.015625 -9.449219 L 0.128906 0 L 1.117188 0 L 2.066406 -2.40625 L 5.953125 -2.40625 L 6.902344 0 Z M 7.890625 0 "/></g></g></g><g fill="#000000" fill-opacity="1"><g transform="translate(241.844491, 277.530363)"><g><path d="M 9.085938 -2.703125 L 8.085938 -2.703125 C 7.773438 -2.132812 7.34375 -1.664062 6.796875 -1.324219 C 6.25 -0.976562 5.640625 -0.804688 4.992188 -0.804688 C 4.015625 -0.804688 3.183594 -1.15625 2.496094 -1.882812 C 1.820312 -2.574219 1.496094 -3.417969 1.496094 -4.40625 C 1.496094 -5.394531 1.820312 -6.238281 2.496094 -6.941406 C 2.808594 -7.265625 3.183594 -7.527344 3.613281 -7.71875 C 4.027344 -7.914062 4.445312 -8.019531 4.859375 -8.019531 C 5.265625 -8.019531 5.613281 -7.96875 5.925781 -7.875 C 6.875 -7.589844 7.589844 -7.019531 8.070312 -6.148438 L 9.070312 -6.148438 C 8.734375 -6.980469 8.203125 -7.65625 7.460938 -8.175781 C 6.707031 -8.695312 5.886719 -8.957031 4.992188 -8.957031 C 3.757812 -8.957031 2.714844 -8.5 1.859375 -7.605469 C 1.457031 -7.1875 1.144531 -6.695312 0.921875 -6.148438 C 0.6875 -5.601562 0.585938 -5.015625 0.585938 -4.40625 C 0.585938 -3.160156 1 -2.105469 1.859375 -1.222656 C 2.714844 -0.3125 3.757812 0.128906 4.992188 0.128906 C 5.886719 0.128906 6.707031 -0.128906 7.472656 -0.648438 C 8.214844 -1.167969 8.746094 -1.84375 9.085938 -2.703125 Z M 9.085938 -2.703125 "/></g></g></g><g fill="#000000" fill-opacity="1"><g transform="translate(261.718745, 277.530363)"><g><path d="M 1.882812 0 L 1.882812 -4.144531 L 4.859375 0 L 6.03125 0 L 2.78125 -4.417969 L 6.03125 -8.839844 L 4.859375 -8.839844 L 1.882812 -4.679688 L 1.882812 -8.839844 L 0.976562 -8.839844 L 0.976562 0 Z M 1.882812 0 "/></g></g></g><g fill="#000000" fill-opacity="1"><g transform="translate(278.279009, 277.530363)"><g><path d="M 6.226562 0 L 6.226562 -0.84375 L 1.882812 -0.84375 L 1.882812 -3.988281 L 6.097656 -3.988281 L 6.097656 -4.847656 L 1.882812 -4.847656 L 1.882812 -7.992188 L 6.226562 -7.992188 L 6.226562 -8.839844 L 0.976562 -8.839844 L 0.976562 0 Z M 6.226562 0 "/></g></g></g><g fill="#000000" fill-opacity="1"><g transform="translate(295.878968, 277.530363)"><g><path d="M 1.882812 -4.367188 L 1.882812 -7.96875 L 3.9375 -7.96875 C 4.472656 -7.96875 4.898438 -7.796875 5.226562 -7.460938 C 5.535156 -7.121094 5.707031 -6.707031 5.707031 -6.1875 C 5.707031 -5.667969 5.535156 -5.238281 5.199219 -4.886719 C 4.859375 -4.535156 4.445312 -4.367188 3.9375 -4.367188 Z M 6.617188 -6.171875 C 6.617188 -6.925781 6.328125 -7.578125 5.785156 -8.085938 C 5.25 -8.578125 4.589844 -8.839844 3.808594 -8.839844 L 0.976562 -8.839844 L 0.976562 0 L 1.882812 0 L 1.882812 -3.496094 L 2.9375 -3.496094 L 5.535156 0 L 6.757812 0 L 4.027344 -3.496094 C 4.71875 -3.535156 5.304688 -3.78125 5.785156 -4.238281 C 6.328125 -4.742188 6.617188 -5.394531 6.617188 -6.171875 Z M 6.617188 -6.171875 "/></g></g></g><g fill="#000000" fill-opacity="1"><g transform="translate(313.356316, 277.530363)"><g/></g></g></svg>